<svg width="17" height="40" viewBox="0 0 17 40" fill="none" xmlns="http://www.w3.org/2000/svg">
<path d="M13.333 39.7132C12.9763 39.7132 12.6378 39.6638 12.2997 39.5604L2.26983 36.2673C0.905123 35.7976 0 34.5444 0 33.1436V3.5801C0 1.76847 1.49501 0.295166 3.33333 0.295166C3.68976 0.295166 4.02819 0.344487 4.36662 0.44794L14.3962 3.74099C15.7612 4.21074 16.666 5.4639 16.666 6.86473V36.4282C16.666 38.2399 15.1713 39.7132 13.333 39.7132ZM3.33333 2.75879C2.87497 2.75879 2.49992 3.12839 2.49992 3.5801V33.1436C2.49992 33.4933 2.73826 33.8184 3.07821 33.9351L13.0611 37.2134C13.1328 37.2363 13.2262 37.2495 13.333 37.2495C13.7914 37.2495 14.1661 36.8799 14.1661 36.4282V6.86473C14.1661 6.51498 13.9278 6.18988 13.5878 6.07319L3.60493 2.79488C3.53321 2.77202 3.43983 2.75879 3.33333 2.75879Z" fill="#FF0742"/>
</svg>
